<?xml version="1.0" encoding="UTF-8" standalone="no"?>
<svg
   xmlns:dc="http://purl.org/dc/elements/1.1/"
   xmlns:cc="http://creativecommons.org/ns#"
   xmlns:rdf="http://www.w3.org/1999/02/22-rdf-syntax-ns#"
   xmlns:svg="http://www.w3.org/2000/svg"
   xmlns="http://www.w3.org/2000/svg"
   id="svg8"
   version="1.1"
   viewBox="0 0 256.63718 72.731827"
   height="72.731827mm"
   width="256.63718mm">
  <defs
     id="defs2">
    <clipPath
       clipPathUnits="userSpaceOnUse"
       id="clipPath3696">
      <path
         d="M 0,612 H 792 V 0 H 0 Z"
         id="path3694" />
    </clipPath>
    <clipPath
       id="clipPath4279"
       clipPathUnits="userSpaceOnUse">
      <rect
         transform="scale(1,-1)"
         y="-704.64099"
         x="93.727165"
         height="209.10158"
         width="728.82507"
         id="rect4281"
         style="fill:none;stroke-width:0.75" />
    </clipPath>
  </defs>
  <metadata
     id="metadata5">
    <rdf:RDF>
      <cc:Work
         rdf:about="">
        <dc:format>image/svg+xml</dc:format>
        <dc:type
           rdf:resource="http://purl.org/dc/dcmitype/StillImage" />
        <dc:title></dc:title>
      </cc:Work>
    </rdf:RDF>
  </metadata>
  <g
     transform="translate(-4.8108523,-23.816026)"
     id="layer1">
    <g
       clip-path="url(#clipPath4279)"
       id="g3688"
       transform="matrix(0.35277777,0,0,-0.35277777,-28.254008,271.36314)">
      <g
         transform="translate(65.912455,250.77037)"
         id="g3690">
        <g
           id="g3692"
           clip-path="url(#clipPath3696)">
          <g
             id="g3698"
             transform="translate(174.6533,339.6924)">
            <path
               d="m 0,0 h -0.147 l -17.396,-41.38 h -2.222 l -16.8,39.826 h -0.15 l -1.701,-28.871 c -0.446,-6.734 3.034,-6.734 8.733,-8.142 v -2.073 h -22.206 v 2.073 c 5.477,1.629 6.957,1.851 7.921,7.775 l 2.144,15.691 2.222,15.989 c 0.593,5.478 -3.48,5.552 -7.846,6.737 v 2.073 h 19.469 V 8.217 c -1.926,-2.591 1.183,-8.142 2.219,-10.585 L -15.321,-26.354 -3.33,1.259 c 0.889,1.998 2.516,5.033 0.593,6.958 v 1.481 h 20.95 V 7.625 C 10.811,6.07 9.625,4.886 9.996,-2.22 l 1.258,-23.91 c 0.518,-8.439 0.593,-10.957 9.697,-12.437 V -40.64 H -7.625 v 2.073 c 10.144,1.185 9.553,3.629 9.033,13.027 z"
               style="fill:#ffffff;fill-opacity:1;fill-rule:nonzero;stroke:none"
               id="path3700" />
          </g>
          <g
             id="g3702"
             transform="translate(217.1475,322.9629)">
            <path
               d="m 0,0 v -9.77 c 0,-7.552 0.075,-11.031 9.918,-11.031 9.625,0 13.77,5.403 15.842,13.918 h 2.222 c 0.149,-5.775 -0.887,-11.474 -2.665,-17.027 h -44.86 v 2.072 c 8.81,1.481 9.773,0.965 9.773,14.363 V 9.993 c 0,13.4 -0.963,12.88 -9.773,14.361 v 2.074 H 24.281 L 22.874,13.473 H 20.579 C 20.061,23.17 13.473,23.318 5.405,23.318 H 0 V 4.443 h 6.294 c 6.367,0 9.697,0.516 11.548,7.252 h 1.923 C 19.394,5.402 19.1,-0.814 19.471,-7.106 H 17.398 C 15.917,0.149 12.437,0 5.995,0 Z"
               style="fill:#ffffff;fill-opacity:1;fill-rule:nonzero;stroke:none"
               id="path3704" />
          </g>
          <g
             id="g3706"
             transform="translate(279.1841,323.334)">
            <path
               d="M 0,0 -6.738,17.174 -13.104,0 Z m -14.511,-4.443 -1.331,-3.774 c -4.443,-12.806 -1.407,-13.027 6.661,-13.992 v -2.072 h -23.021 v 2.072 c 3.998,1.258 5.7,1.408 7.403,5.33 l 4.813,11.252 11.547,26.945 -0.742,2.221 c 2.887,1.037 5.258,3.183 7.034,5.7 h 1.405 l 13.844,-36.05 c 4.812,-12.14 4.292,-13.029 11.916,-15.398 v -2.072 H -0.149 v 2.072 c 7.181,1.258 7.624,2.666 3.552,13.105 l -1.774,4.661 z"
               style="fill:#ffffff;fill-opacity:1;fill-rule:nonzero;stroke:none"
               id="path3708" />
          </g>
          <g
             id="g3710"
             transform="translate(354.9136,332.5879)">
            <path
               d="M 0,0 H -2.222 C -4,8.363 -9.032,14.656 -18.36,14.656 c -12.362,0 -18.505,-11.029 -18.505,-22.43 0,-10.808 7.032,-23.613 19.172,-23.613 10.141,0 15.1,7.92 18.507,16.209 l 2.22,-0.739 -4.663,-15.546 c -5.33,-2.293 -10.883,-3.33 -16.657,-3.33 -15.914,0 -30.572,8.66 -30.572,25.686 0,17.47 15.027,27.168 31.165,27.168 6.068,0 12.213,-1.111 17.693,-3.85 z"
               style="fill:#ffffff;fill-opacity:1;fill-rule:nonzero;stroke:none"
               id="path3712" />
          </g>
          <g
             id="g3714"
             transform="translate(145.0449,254.6367)">
            <path
               d="m 0,0 h -22.17 v 1.035 c 4.403,0.74 4.885,0.483 4.885,7.182 v 8.732 c 0,6.699 -0.482,6.442 -4.885,7.182 v 1.037 h 14.656 v -1.037 c -5.106,-0.444 -4.884,-2.145 -4.884,-7.182 V 3.33 c 0,-1.219 -0.555,-1.666 3.369,-1.666 6.327,0 7.771,2.369 10.733,7.479 L 2.74,8.734 Z"
               style="fill:#ffffff;fill-opacity:1;fill-rule:nonzero;stroke:none"
               id="path3716" />
          </g>
          <g
             id="g3718"
             transform="translate(152.855,275.1406)">
            <path
               d="M 0,0 C -1.48,0 -2.702,1.184 -2.702,2.629 -2.702,4.07 -1.48,5.295 0,5.295 1.479,5.295 2.704,4.07 2.704,2.629 2.704,1.184 1.479,0 0,0 m -2.034,-10.143 c 0,2.594 0,2 -2.222,3.629 V -5.92 L 1.74,-3.404 2.479,-3.959 2.333,-8.402 v -7.438 c 0,-3.035 0,-2.963 2.848,-3.777 v -0.887 h -10.03 v 0.887 c 2.815,0.742 2.815,0.853 2.815,3.777 z"
               style="fill:#ffffff;fill-opacity:1;fill-rule:nonzero;stroke:none"
               id="path3720" />
          </g>
          <g
             id="g3722"
             transform="translate(162.147,271.4395)">
            <path
               d="m 0,0 c -0.039,5.33 3.59,9.846 9.215,9.846 1.665,0 4.441,-0.629 4.441,-2.701 0,-1.592 -1.665,-2.333 -3.073,-2.221 C 9.808,6.109 8.104,8.217 6.588,8.217 3.735,8.217 4.292,0.668 4.217,-0.701 H 9.398 V -2.74 H 4.366 v -9.399 c 0,-3.035 0,-2.963 4.073,-3.777 v -0.887 H -3.222 v 0.887 C 0,-15.174 0,-15.063 0,-12.139 v 9.399 h -3.258 v 0.89 z"
               style="fill:#ffffff;fill-opacity:1;fill-rule:nonzero;stroke:none"
               id="path3724" />
          </g>
          <g
             id="g3726"
             transform="translate(185.835,255.4902)">
            <path
               d="m 0,0 c -1.075,-0.371 -2.222,-0.705 -3.369,-0.965 -1.186,-0.26 -2.333,-0.406 -3.518,-0.406 -3.625,0 -3.625,2.664 -3.625,5.551 v 9.029 h -2.85 V 14.1 l 6.513,5.627 h 0.704 V 15.248 H 0 V 13.209 H -6.145 V 6.732 c 0,-4.181 -0.111,-5.736 4.699,-5.736 H 0 Z"
               style="fill:#ffffff;fill-opacity:1;fill-rule:nonzero;stroke:none"
               id="path3728" />
          </g>
          <g
             id="g3730"
             transform="translate(191.3481,275.1406)">
            <path
               d="M 0,0 C -1.479,0 -2.701,1.184 -2.701,2.629 -2.701,4.07 -1.479,5.295 0,5.295 1.48,5.295 2.704,4.07 2.704,2.629 2.704,1.184 1.48,0 0,0 m -2.034,-10.143 c 0,2.594 0,2 -2.221,3.629 V -5.92 L 1.74,-3.404 2.48,-3.959 2.333,-8.402 v -7.438 c 0,-3.035 0,-2.963 2.848,-3.777 v -0.887 H -4.848 v 0.887 c 2.814,0.742 2.814,0.853 2.814,3.777 z"
               style="fill:#ffffff;fill-opacity:1;fill-rule:nonzero;stroke:none"
               id="path3732" />
          </g>
          <g
             id="g3734"
             transform="translate(204.5635,259.3008)">
            <path
               d="m 0,0 c 0,-3.035 0,-2.963 2.588,-3.777 v -0.887 h -9.769 v 0.887 c 2.812,0.742 2.812,0.853 2.812,3.777 v 5.697 c 0,2.594 0,2 -2.219,3.629 V 9.92 l 5.995,2.516 0.74,-0.555 -0.407,-2.332 c 2.221,1.478 4.405,2.664 6.738,2.664 1.44,0 3.033,-0.775 3.884,-1.961 1.036,-1.443 0.964,-3.369 0.964,-5.07 V 0 c 0,-2.924 0,-3.035 2.812,-3.777 V -4.664 H 4.367 v 0.887 c 2.59,0.814 2.59,0.742 2.59,3.777 v 4.551 c 0,2.926 -0.667,5.146 -4.181,5.146 -1,0 -1.925,-0.371 -2.776,-0.851 z"
               style="fill:#ffffff;fill-opacity:1;fill-rule:nonzero;stroke:none"
               id="path3736" />
          </g>
          <g
             id="g3738"
             transform="translate(225.772,266.1484)">
            <path
               d="m 0,0 c 0,-1.887 0.889,-5.072 3.294,-5.072 2.144,0 2.776,2.48 2.776,4.181 C 6.07,1.035 5.217,4.18 2.74,4.18 0.667,4.18 0,1.59 0,0 m 1.222,-12.398 c -1.147,-0.557 -2.258,-1.741 -2.258,-3.038 0,-2.478 3.405,-3.369 5.366,-3.369 2.333,0 5.957,0.891 5.957,3.741 0,2.478 -2.072,2.812 -4.144,2.812 z M 14.359,2.146 9.733,2.369 c 0.52,-0.814 0.704,-1.48 0.704,-2.445 0,-3.996 -3.774,-6.18 -7.439,-6.18 -0.89,0 -1.74,0.147 -2.591,0.297 -0.332,-0.443 -0.778,-1 -0.778,-1.555 0,-3.777 14.138,2.108 14.138,-5.441 0,-5.406 -8.29,-7.959 -12.767,-7.959 -2.407,0 -6.405,0.891 -6.405,4 0,2.293 3.147,3.736 5.034,4.476 v 0.073 c -1.555,0.26 -4.034,1.15 -4.034,3.074 0,1.295 2.701,2.59 3.959,3.664 -2.183,0.815 -3.923,2.555 -3.923,4.959 0,4.109 3.998,6.033 7.663,6.033 1.776,0 3.516,-0.371 5.07,-1.185 h 5.995 z"
               style="fill:#ffffff;fill-opacity:1;fill-rule:nonzero;stroke:none"
               id="path3740" />
          </g>
          <g
             id="g3742"
             transform="translate(270.8535,279.8047)">
            <path
               d="M 0,0 H 11.548 V -1.037 C 7.993,-1.963 7.993,-2.516 7.699,-8.697 l -0.26,-5.553 c -0.111,-2.922 -0.183,-6.254 -2.333,-8.475 -2.183,-2.295 -5.552,-3.072 -8.622,-3.072 -2.887,0 -6.366,0.74 -8.549,2.701 -2.594,2.332 -2.222,5.924 -2.222,9.032 v 5.845 c 0,6.699 -0.482,6.442 -4.885,7.182 V 0 H -4.516 V -1.037 C -9.622,-1.48 -9.4,-3.182 -9.4,-8.219 v -5.179 c 0,-2.145 -0.111,-5.071 1.072,-6.922 1.482,-2.258 4.48,-3.147 7.07,-3.147 6.107,0 7.032,4.444 6.885,9.031 l -0.26,8.957 C 5.256,-1.52 3.48,-1.74 0,-1.037 Z"
               style="fill:#ffffff;fill-opacity:1;fill-rule:nonzero;stroke:none"
               id="path3744" />
          </g>
          <g
             id="g3746"
             transform="translate(290.9873,261.4102)">
            <path
               d="m 0,0 c 0,-2.889 0.742,-5.553 3.889,-5.553 3.07,0 4.181,3.703 4.181,6.143 0,3.369 -1.703,6.998 -5.516,6.998 C 1.593,7.588 0.814,7.289 0,6.885 Z m 0,-11.18 c 0,-3.033 0,-2.959 4.479,-3.773 v -0.889 H -7.179 v 0.889 c 2.812,0.74 2.812,0.851 2.812,3.773 V 3.588 c 0,2.594 0,2 -2.219,3.629 V 7.811 L -0.59,10.326 0.149,9.771 -0.258,7.736 c 1.74,1.147 3.554,2.368 5.738,2.368 4.405,0 7.181,-3.776 7.181,-7.809 0,-6.108 -5.516,-9.4 -11.143,-9.4 L 0,-7.033 Z"
               style="fill:#ffffff;fill-opacity:1;fill-rule:nonzero;stroke:none"
               id="path3748" />
          </g>
          <g
             id="g3750"
             transform="translate(323.7456,267.7754)">
            <path
               d="m 0,0 c 0,-5.219 2.443,-12.064 8.699,-12.064 5.846,0 7.883,5.957 7.883,10.804 0,5.26 -2.519,12.217 -8.847,12.217 C 2.036,10.957 0,4.625 0,0 m 22.577,-0.369 c 0,-8.254 -6.217,-13.399 -14.36,-13.399 -8.031,0 -14.213,4.959 -14.213,13.141 0,8.029 6.218,13.287 14.175,13.287 7.774,0 14.398,-4.515 14.398,-13.029"
               style="fill:#ffffff;fill-opacity:1;fill-rule:nonzero;stroke:none"
               id="path3752" />
          </g>
          <g
             id="g3754"
             transform="translate(355.5786,259.3008)">
            <path
               d="m 0,0 c 0,-3.035 0,-2.963 2.588,-3.777 v -0.887 h -9.769 v 0.887 c 2.812,0.742 2.812,0.853 2.812,3.777 v 5.697 c 0,2.594 0,2 -2.219,3.629 V 9.92 l 5.995,2.516 0.74,-0.555 -0.407,-2.332 c 2.221,1.478 4.405,2.664 6.738,2.664 1.44,0 3.033,-0.775 3.884,-1.961 1.036,-1.443 0.964,-3.369 0.964,-5.07 V 0 c 0,-2.924 0,-3.035 2.812,-3.777 V -4.664 H 4.366 v 0.887 C 6.957,-2.963 6.957,-3.035 6.957,0 v 4.551 c 0,2.926 -0.667,5.146 -4.181,5.146 -1,0 -1.925,-0.371 -2.776,-0.851 z"
               style="fill:#ffffff;fill-opacity:1;fill-rule:nonzero;stroke:none"
               id="path3756" />
          </g>
          <g
             id="g3758"
             transform="translate(381.8569,266.627)">
            <path
               d="m 0,0 c -0.186,1.557 -0.778,3.555 -2.74,3.555 -2.072,0 -3.036,-2.073 -3.405,-3.739 z m -6.367,-1.441 c -0.111,-4.036 2.184,-7.848 6.661,-7.848 1.778,0 2.887,0.814 4.037,2.109 l 0.925,-0.666 c -1.778,-2.48 -4.369,-4.662 -7.625,-4.662 -4.665,0 -8.217,3.701 -8.217,8.514 0,4.551 3.848,8.881 8.625,8.881 4.144,0 6.402,-2.367 6.549,-6.328 z"
               style="fill:#ffffff;fill-opacity:1;fill-rule:nonzero;stroke:none"
               id="path3760" />
          </g>
          <g
             id="g3762"
             transform="translate(408.9492,262.8535)">
            <path
               d="M 0,0 C 0,-5.033 -0.224,-6.738 4.885,-7.182 V -8.217 H -9.771 v 1.035 c 4.402,0.741 4.884,0.483 4.884,7.182 v 8.732 c 0,6.7 -0.482,6.442 -4.884,7.182 v 1.037 H 4.885 V 15.914 C -0.224,15.471 0,13.77 0,8.732 V 6.145 h 13.471 v 2.587 c 0,5.038 0.221,6.739 -4.885,7.182 v 1.037 H 23.242 V 15.914 C 18.837,15.174 18.357,15.432 18.357,8.732 V 0 c 0,-6.699 0.48,-6.441 4.885,-7.182 V -8.217 H 8.586 v 1.035 c 5.106,0.444 4.885,2.149 4.885,7.182 V 3.924 H 0 Z"
               style="fill:#ffffff;fill-opacity:1;fill-rule:nonzero;stroke:none"
               id="path3764" />
          </g>
          <g
             id="g3766"
             transform="translate(448.626,262.4102)">
            <path
               d="m 0,0 c 0,3.109 -1.258,7.771 -4.959,7.771 -3.294,0 -4.663,-4.294 -4.663,-7.105 0,-2.998 1.443,-7.625 5.181,-7.625 C -0.961,-6.959 0,-2.664 0,0 m -14.509,0.223 c 0,5.441 4.552,8.881 9.846,8.881 5.07,0 9.548,-3.405 9.548,-8.624 0,-5.328 -4.442,-8.771 -9.622,-8.771 -5.109,0 -9.772,3.107 -9.772,8.514"
               style="fill:#ffffff;fill-opacity:1;fill-rule:nonzero;stroke:none"
               id="path3768" />
          </g>
          <g
             id="g3770"
             transform="translate(469.1328,265.666)">
            <path
               d="m 0,0 c 0,3.223 0.036,3.48 -3.443,4.037 v 0.887 l 7.81,0.629 V -5.92 c 0,-1.297 -0.221,-3.187 1.518,-3.074 l 1.776,0.111 V -9.844 L -0.11,-11.658 0,-9.107 c -1.889,-1.108 -4.072,-2.44 -6.366,-2.44 -1.629,0 -3.148,0.666 -4.034,2.035 -0.964,1.408 -0.779,3.258 -0.779,4.922 V 0 c 0,2.775 0.333,3.59 -2.886,4.037 v 0.887 l 7.253,0.629 v -9.328 c 0,-2.739 0.557,-5.254 3.59,-5.254 1.222,0 2.186,0.369 3.222,0.847 z"
               style="fill:#ffffff;fill-opacity:1;fill-rule:nonzero;stroke:none"
               id="path3772" />
          </g>
          <g
             id="g3774"
             transform="translate(484.4932,271.5137)">
            <path
               d="M 0,0 C 1.665,0 3.516,-0.553 4.998,-1.332 V -5.18 L 3.665,-5.33 c -0.629,1.629 -1.443,3.998 -3.591,3.998 -1.332,0 -2.221,-0.85 -2.221,-2.186 0,-3.812 7.846,-3.734 7.846,-8.806 0,-3.256 -3.477,-5.071 -6.403,-5.071 -1.961,0 -3.959,0.59 -5.624,1.553 l -0.296,4.699 1.368,0.114 c 0.593,-2.147 1.851,-5.033 4.552,-5.033 1.407,0 2.408,1.22 2.408,2.554 0,3.994 -7.849,3.516 -7.849,8.586 C -6.145,-1.629 -2.998,0 0,0"
               style="fill:#ffffff;fill-opacity:1;fill-rule:nonzero;stroke:none"
               id="path3776" />
          </g>
          <g
             id="g3778"
             transform="translate(503.2607,266.627)">
            <path
               d="m 0,0 c -0.186,1.557 -0.778,3.555 -2.74,3.555 -2.072,0 -3.036,-2.073 -3.406,-3.739 z m -6.367,-1.441 c -0.111,-4.036 2.183,-7.848 6.661,-7.848 1.778,0 2.887,0.814 4.036,2.109 l 0.925,-0.666 c -1.778,-2.48 -4.368,-4.662 -7.624,-4.662 -4.665,0 -8.218,3.701 -8.218,8.514 0,4.551 3.849,8.881 8.625,8.881 4.145,0 6.402,-2.367 6.55,-6.328 z"
               style="fill:#ffffff;fill-opacity:1;fill-rule:nonzero;stroke:none"
               id="path3780" />
          </g>
          <g
             id="g3782"
             transform="translate(516.3594,280.7285)">
            <path
               d="m 0,0 -0.146,-4.439 v -7.143 c 1.96,1.182 4.144,2.367 6.477,2.367 1.443,0 3.034,-0.775 3.887,-1.961 1.036,-1.443 0.962,-3.369 0.962,-5.07 v -5.182 c 0,-2.924 0,-3.035 2.811,-3.777 v -0.887 H 4.22 v 0.887 c 2.592,0.814 2.592,0.742 2.592,3.777 v 4.551 c 0,2.926 -0.666,5.147 -4.182,5.147 -1.001,0 -1.926,-0.372 -2.776,-0.852 v -8.846 c 0,-3.035 0,-2.963 2.59,-3.777 v -0.887 h -9.772 v 0.887 c 2.815,0.742 2.815,0.853 2.815,3.777 v 15.25 c 0,2.588 0,1.998 -2.221,3.625 v 0.592 l 5.995,2.518 z"
               style="fill:#ffffff;fill-opacity:1;fill-rule:nonzero;stroke:none"
               id="path3784" />
          </g>
          <g
             id="g3786"
             transform="translate(546.3418,262.4102)">
            <path
               d="m 0,0 c 0,3.109 -1.258,7.771 -4.959,7.771 -3.294,0 -4.663,-4.294 -4.663,-7.105 0,-2.998 1.443,-7.625 5.181,-7.625 C -0.961,-6.959 0,-2.664 0,0 m -14.509,0.223 c 0,5.441 4.552,8.881 9.846,8.881 5.07,0 9.548,-3.405 9.548,-8.624 0,-5.328 -4.442,-8.771 -9.622,-8.771 -5.109,0 -9.772,3.107 -9.772,8.514"
               style="fill:#ffffff;fill-opacity:1;fill-rule:nonzero;stroke:none"
               id="path3788" />
          </g>
          <g
             id="g3790"
             transform="translate(560.1504,280.7285)">
            <path
               d="m 0,0 -0.149,-4.439 v -16.989 c 0,-3.035 0,-2.963 2.811,-3.777 v -0.887 h -9.993 v 0.887 c 2.814,0.742 2.814,0.853 2.814,3.777 v 15.25 c 0,2.588 0,1.998 -2.221,3.625 v 0.592 l 5.996,2.518 z"
               style="fill:#ffffff;fill-opacity:1;fill-rule:nonzero;stroke:none"
               id="path3792" />
          </g>
          <g
             id="g3794"
             transform="translate(577.8037,264.1836)">
            <path
               d="m 0,0 c 0,3.037 -1.739,5.777 -4.627,5.777 -2.961,0 -4.069,-3.445 -4.069,-5.849 0,-3.184 1.701,-7.254 5.513,-7.254 1.408,0 2.222,0.406 3.183,1.295 z M 4.369,16.545 V -3.623 c 0,-4.148 -0.075,-4.148 3.405,-3.963 L 7.885,-8.473 -0.11,-10.176 0,-7.254 c -1.554,-1.701 -3.479,-2.81 -5.885,-2.81 -4.294,0 -7.402,3.847 -7.402,7.957 0,4.33 3.294,9.437 8.364,9.437 1.815,0 3.48,-0.295 4.923,-0.518 v 3.555 c 0,2.588 0,1.998 -2.294,3.625 v 0.592 l 5.995,2.518 z"
               style="fill:#ffffff;fill-opacity:1;fill-rule:nonzero;stroke:none"
               id="path3796" />
          </g>
          <g
             id="g3798"
             transform="translate(602.6777,260.6699)">
            <path
               d="m 0,0 c -0.111,-0.592 -0.258,-1.109 -0.258,-1.666 0,-1.48 0.665,-2.738 2.33,-2.738 0.853,0 1.407,0.293 2,0.74 v 5.809 z m 4.072,3.145 c 0,2.851 -0.039,5.406 -3.221,5.406 -1.849,0 -1.665,-1.297 -1.665,-2.705 V 5.217 l -3.11,-0.221 c -0.368,0 -0.925,0 -0.925,0.445 0,1.33 5.22,5.403 8.7,5.403 4.144,0 4.587,-4.442 4.587,-7.774 v -4.476 c 0,-2.369 0.444,-2.334 3.037,-3.184 V -5.404 C 10.104,-5.701 8.181,-6.551 6.81,-6.551 c -1.554,0 -2.183,0.666 -2.516,2.035 -1.593,-1.146 -3.072,-2.035 -5.145,-2.035 -2.369,0 -3.998,1.815 -3.998,4.108 0,0.666 0.111,1.297 0.332,1.963 z"
               style="fill:#ffffff;fill-opacity:1;fill-rule:nonzero;stroke:none"
               id="path3800" />
          </g>
          <g
             id="g3802"
             transform="translate(628.5146,255.4902)">
            <path
               d="m 0,0 c -1.074,-0.371 -2.222,-0.705 -3.368,-0.965 -1.186,-0.26 -2.333,-0.406 -3.517,-0.406 -3.629,0 -3.629,2.664 -3.629,5.551 v 9.029 h -2.848 V 14.1 l 6.513,5.627 h 0.704 V 15.248 H 0 V 13.209 H -6.145 V 6.732 c 0,-4.181 -0.111,-5.736 4.702,-5.736 H 0 Z"
               style="fill:#ffffff;fill-opacity:1;fill-rule:nonzero;stroke:none"
               id="path3804" />
          </g>
          <g
             id="g3806"
             transform="translate(645.6143,260.6699)">
            <path
               d="m 0,0 c -0.11,-0.592 -0.258,-1.109 -0.258,-1.666 0,-1.48 0.665,-2.738 2.331,-2.738 0.853,0 1.407,0.293 2,0.74 v 5.809 z m 4.073,3.145 c 0,2.851 -0.039,5.406 -3.222,5.406 -1.848,0 -1.665,-1.297 -1.665,-2.705 V 5.217 L -3.923,4.996 c -0.368,0 -0.925,0 -0.925,0.445 0,1.33 5.219,5.403 8.7,5.403 4.144,0 4.587,-4.442 4.587,-7.774 v -4.476 c 0,-2.369 0.444,-2.334 3.037,-3.184 v -0.814 c -1.372,-0.297 -3.294,-1.147 -4.665,-1.147 -1.555,0 -2.184,0.666 -2.516,2.035 -1.593,-1.146 -3.073,-2.035 -5.146,-2.035 -2.368,0 -3.997,1.815 -3.997,4.108 0,0.666 0.111,1.297 0.332,1.963 z"
               style="fill:#ffffff;fill-opacity:1;fill-rule:nonzero;stroke:none"
               id="path3808" />
          </g>
          <g
             id="g3810"
             transform="translate(669.0088,272.6621)">
            <path
               d="M 0,0 0.851,8.328 H 1.629 C 1.997,7.662 2.516,7.328 3.072,7.217 3.665,7.105 4.294,7.143 4.959,7.143 h 15.656 c 1.333,0 2.591,-0.184 3.333,1.185 h 0.776 L 25.574,0 24.538,-0.186 C 23.059,5.07 20.319,5.59 15.213,5.59 V -9.809 c 0,-6.699 0.479,-6.441 5.552,-7.181 v -1.035 H 4.773 v 1.035 c 5.073,0.74 5.552,0.482 5.552,7.181 V 5.59 C 5.22,5.59 2.554,5.07 1.036,-0.186 Z"
               style="fill:#ffffff;fill-opacity:1;fill-rule:nonzero;stroke:none"
               id="path3812" />
          </g>
          <g
             id="g3814"
             transform="translate(700.1768,275.1406)">
            <path
               d="M 0,0 C -1.482,0 -2.704,1.184 -2.704,2.629 -2.704,4.07 -1.482,5.295 0,5.295 1.479,5.295 2.701,4.07 2.701,2.629 2.701,1.184 1.479,0 0,0 m -2.036,-10.143 c 0,2.594 0,2 -2.223,3.629 V -5.92 L 1.737,-3.404 2.479,-3.959 2.33,-8.402 v -7.438 c 0,-3.035 0,-2.963 2.851,-3.777 v -0.887 H -4.852 v 0.887 c 2.816,0.742 2.816,0.853 2.816,3.777 z"
               style="fill:#ffffff;fill-opacity:1;fill-rule:nonzero;stroke:none"
               id="path3816" />
          </g>
          <g
             id="g3818"
             transform="translate(713.2422,259.3008)">
            <path
               d="m 0,0 c 0,-3.035 0,-2.963 2.591,-3.777 v -0.887 h -9.772 v 0.887 c 2.812,0.742 2.812,0.853 2.812,3.777 v 5.697 c 0,2.594 0,2 -2.219,3.629 V 9.92 l 5.995,2.516 0.739,-0.555 -0.406,-2.332 c 1.739,1.258 3.887,2.664 6.181,2.664 2.072,0 3.665,-0.889 4.591,-2.736 1.775,1.218 4.144,2.736 6.402,2.736 4.256,0 4.995,-3.293 5.07,-6.848 V 0 c 0,-3.035 0,-2.963 2.777,-3.777 v -0.887 h -9.587 v 0.887 c 2.444,0.742 2.444,0.853 2.444,3.777 v 4.771 c 0,3.555 -1.371,4.926 -3.702,4.926 -1.258,0 -2.183,-0.519 -3.072,-1.035 L 10.991,6.254 V 0 c 0,-3.035 0,-2.963 2.407,-3.777 V -4.664 H 4.181 v 0.887 C 6.624,-3.035 6.624,-2.924 6.624,0 V 4.771 C 6.624,8.326 5.256,9.697 2.923,9.697 1.812,9.697 0.962,9.289 0,8.846 Z"
               style="fill:#ffffff;fill-opacity:1;fill-rule:nonzero;stroke:none"
               id="path3820" />
          </g>
          <g
             id="g3822"
             transform="translate(750.0342,266.627)">
            <path
               d="m 0,0 c -0.186,1.557 -0.778,3.555 -2.739,3.555 -2.073,0 -3.037,-2.073 -3.406,-3.739 z m -6.366,-1.441 c -0.112,-4.036 2.183,-7.848 6.66,-7.848 1.778,0 2.887,0.814 4.037,2.109 l 0.925,-0.666 c -1.778,-2.48 -4.369,-4.662 -7.624,-4.662 -4.666,0 -8.218,3.701 -8.218,8.514 0,4.551 3.849,8.881 8.625,8.881 4.145,0 6.402,-2.367 6.55,-6.328 z"
               style="fill:#ffffff;fill-opacity:1;fill-rule:nonzero;stroke:none"
               id="path3824" />
          </g>
          <g
             id="g3826"
             transform="translate(144.604,396.4126)">
            <path
               d="m 0,0 c 0,0 19.254,11.097 33.363,7.046 6.984,-2.005 9.309,-5.432 9.957,-6.4 0.648,-0.972 3.815,-3.685 -9.376,-2.523 -13.025,1.151 -25.278,-3.039 -36.27,-8.081 -10.99,-5.043 -32.457,-20.302 -36.206,-22.887 -3.75,-2.586 -22.242,-17.456 -26.508,-22.372 -4.27,-4.914 -7.889,-7.629 -10.475,-10.862 -2.586,-3.233 -5.559,-2.972 -7.502,-2.972 -1.937,0 -10.472,-0.649 -5.816,3.23 4.655,3.88 14.998,9.827 25.731,18.363 10.733,8.535 29.741,22.758 35.303,27.283 C -22.24,-15.647 -3.102,-1.682 0,0"
               style="fill:#edac09;fill-opacity:1;fill-rule:nonzero;stroke:none"
               id="path3828" />
          </g>
          <g
             id="g3830"
             transform="translate(136.9336,396.54)">
            <path
               d="m 0,0 c 0,0 -1.208,15.606 -8.191,20.259 -6.981,4.656 -15.259,6.812 -25.861,6.465 -10.603,-0.344 -21.896,-0.171 -28.966,1.036 -7.07,1.205 -17.413,7.24 -19.481,9.136 0,0 -1.036,-8.015 8.189,-12.5 0,0 -1.897,-1.033 -5.776,0.261 0,0 1.636,-10.777 19.051,-11.121 0,0 -3.706,-1.641 -3.706,-3.278 0,-1.636 2.76,-4.308 8.793,-6.292 6.034,-1.983 13.254,-2.178 24.136,-4.395 8.881,-1.812 9.225,-6.379 9.312,-7.759 0,0 0.087,-1.983 -1.292,-4.569 -1.099,-2.061 -2.54,-4.564 -4.568,-6.552 0,0 2.067,8.79 -2.071,13.104 -4.137,4.311 -8.017,4.311 -10.431,4.569 -2.415,0.258 -17.845,1.205 -25.604,4.135 -3.54,1.337 -6.33,2.186 -8.017,3.709 -2.01,1.816 -2.577,4.429 -2.67,7.759 0,0 -7.158,0.602 -10.777,6.034 -3.622,5.432 -1.899,8.275 -1.812,9.222 0,0 -7.93,3.967 -9.567,10.432 -1.638,6.466 -0.776,12.244 0.256,14.743 0,0 10.692,-8.102 15.174,-10.345 4.482,-2.243 13.018,-6.381 21.637,-7.328 8.622,-0.947 32.937,0.728 37.327,0.516 C -17.673,36.896 -8.62,34.31 -3.793,29.483 -1.294,26.987 0.81,23.946 1.723,20.864 2.576,17.991 2.497,14.711 2.412,12.673 2.241,8.449 0,0 0,0"
               style="fill:#edac09;fill-opacity:1;fill-rule:nonzero;stroke:none"
               id="path3832" />
          </g>
        </g>
      </g>
      <rect
         transform="scale(1,-1)"
         y="-359.16882"
         x="114.94037"
         height="117.43023"
         width="670.48877"
         id="rect3907"
         style="fill:none;stroke-width:0.75" />
      <rect
         transform="scale(1,-1)"
         y="-359.16882"
         x="114.94037"
         height="121.97594"
         width="611.39484"
         id="rect3909"
         style="fill:none;stroke-width:0.75" />
      <rect
         transform="scale(1,-1)"
         y="-359.16882"
         x="114.94037"
         height="118.94549"
         width="653.82129"
         id="rect3911"
         style="fill:none;stroke-width:0.75" />
      <rect
         transform="scale(1,-1)"
         y="-467.50769"
         x="14.935265"
         height="264.40744"
         width="794.73755"
         id="rect3913"
         style="fill:none;stroke-width:0.75" />
      <rect
         transform="scale(1,-1)"
         y="-359.16882"
         x="114.94037"
         height="115.91502"
         width="695.49017"
         id="rect3915"
         style="fill:none;stroke-width:0.75" />
      <rect
         transform="scale(1,-1)"
         y="-467.50769"
         x="14.935265"
         height="227.28436"
         width="753.82635"
         id="rect3917"
         style="fill:none;stroke-width:0.75" />
      <rect
         transform="scale(1,-1)"
         y="-359.16882"
         x="114.94037"
         height="100.38783"
         width="640.34985"
         id="rect3919"
         style="fill:none;stroke-width:0.75" />
      <rect
         transform="scale(1,-1)"
         y="-359.16882"
         x="114.94037"
         height="118.9455"
         width="653.82129"
         id="rect3921"
         style="fill:none;stroke-width:0.75" />
    </g>
    <rect
       y="22.246916"
       x="5.3453913"
       height="74.300934"
       width="258.71689"
       id="rect4111"
       style="fill:none;stroke-width:0.26458332" />
  </g>
</svg>
